<svg width="15" height="11" viewBox="0 0 15 11" fill="none" xmlns="http://www.w3.org/2000/svg">
<path d="M8.40389 0.921942C8.66126 0.692686 9.07855 0.692686 9.33593 0.921942L13.9961 5.07298C14.1282 5.19064 14.1925 5.34582 14.189 5.5C14.1925 5.65418 14.1282 5.80936 13.9961 5.92702L9.33593 10.0781C9.07855 10.3073 8.66126 10.3073 8.40389 10.0781C8.14651 9.8488 8.14651 9.47711 8.40389 9.24785L11.9277 6.10905H1.57067C1.20669 6.10905 0.911621 5.84622 0.911621 5.52201C0.911621 5.19779 1.20669 4.93496 1.57067 4.93496H11.9771L8.40389 1.75215C8.14651 1.52289 8.14651 1.1512 8.40389 0.921942Z" fill="#E2E2E2" stroke="#E2E2E2" stroke-width="0.3" stroke-linecap="round"/>
</svg>
