<svg width="124" height="46" viewBox="0 0 124 46" fill="none" xmlns="http://www.w3.org/2000/svg">
<path d="M32.5029 0H12.5011C5.59694 0 0 5.59694 0 12.5011V32.5029C0 39.4071 5.59694 45.004 12.5011 45.004H32.5029C39.4071 45.004 45.004 39.4071 45.004 32.5029V12.5011C45.004 5.59694 39.4071 0 32.5029 0Z" fill="url(#paint0_linear_114_162)"/>
<g filter="url(#filter0_d_114_162)">
<path fill-rule="evenodd" clip-rule="evenodd" d="M23.1018 36.2614C30.4526 35.9473 36.3156 29.8886 36.3156 22.4605C36.3156 14.8314 30.1311 8.64673 22.5019 8.64673C14.8729 8.64673 8.68823 14.8314 8.68823 22.4605C8.68823 25.1468 9.45503 27.6539 10.7817 29.7751C10.9148 30.0901 11.1276 30.6644 11.4533 31.707C11.7912 32.7889 11.5769 33.8574 11.3972 34.6905L11.3814 34.7636C11.2988 35.1456 11.2262 35.4812 11.2309 35.7354C11.2335 35.8717 11.2581 35.9929 11.3219 36.0879C11.3873 36.1851 11.4883 36.2467 11.6262 36.2727C11.7568 36.2973 12.0341 36.3151 12.4135 36.3278C12.795 36.3407 13.285 36.3488 13.8443 36.3533C14.9629 36.3621 16.3604 36.3562 17.7264 36.3444C19.0925 36.3327 20.4272 36.3149 21.4206 36.3003C21.9171 36.2929 22.3284 36.2863 22.6155 36.2814C22.7591 36.2791 22.8716 36.2772 22.9482 36.2758L23.0357 36.2743L23.0581 36.2739L23.0637 36.2738H23.0652H23.0656C23.0656 36.2738 23.0656 36.2738 23.0655 36.2629L23.0656 36.2738C23.0792 36.2736 23.0917 36.2689 23.1018 36.2614ZM20.9036 36.1827C16.8403 35.7145 13.3137 33.4832 11.1083 30.2733C11.2292 30.6071 11.3817 31.0587 11.5726 31.6698C11.9215 32.7866 11.6988 33.8854 11.5194 34.7168L11.5056 34.7809C11.4211 35.172 11.3515 35.4941 11.3559 35.7331C11.3583 35.8579 11.3809 35.9515 11.4257 36.0182C11.4689 36.0824 11.5376 36.1288 11.6494 36.1498C11.7687 36.1723 12.0358 36.1899 12.4178 36.2029C12.7977 36.2158 13.2863 36.2238 13.8453 36.2283C14.9627 36.2371 16.3595 36.2312 17.7252 36.2194C18.867 36.2096 19.9868 36.1957 20.9036 36.1827Z" fill="white"/>
<path d="M12.9243 30.8726C12.9287 31.2393 13.0774 31.5794 13.1056 31.9433C13.1301 32.2585 13.2328 32.5639 13.2654 32.8784C13.2706 32.9284 13.2832 32.9813 13.2963 33.0301C13.3202 33.1198 13.2813 32.8447 13.2674 32.7528C13.2283 32.494 13.1604 32.2415 13.0788 31.9936C13.0326 31.8533 12.9872 31.7221 12.9016 31.5996C12.8948 31.5899 12.8706 31.525 12.8586 31.5284C12.8344 31.5354 12.8519 31.791 12.8519 31.8178C12.8519 31.9639 12.8474 32.1086 12.8761 32.2528C12.8968 32.3575 12.9243 32.4576 12.9243 32.5649C12.9243 32.5899 12.9252 32.5146 12.9231 32.4898C12.9143 32.3891 12.8943 32.2863 12.8774 32.187C12.8442 31.9922 12.8058 31.7955 12.7553 31.6043C12.728 31.5012 12.6845 31.3414 12.6102 31.2592C12.5531 31.1961 12.5032 31.1284 12.4592 31.0539C12.3541 30.8759 12.2723 30.7113 12.1323 30.5585C12.0915 30.5139 12.0618 30.4607 12.0115 30.4195C11.9613 30.3785 11.9082 30.3318 11.8611 30.2872C11.8298 30.2577 11.8432 30.2812 11.8584 30.3047C11.8824 30.3418 11.8706 30.3896 11.898 30.4262C11.928 30.4662 11.96 30.5616 11.9692 30.6121C11.9906 30.7301 12.0776 30.8446 12.1027 30.9638C12.1176 31.0345 12.1251 31.0999 12.1417 31.1679C12.1601 31.2436 12.1709 31.3196 12.1873 31.3935C12.1997 31.4494 12.1957 31.5479 12.2236 31.5949C12.251 31.6411 12.2598 31.7186 12.2598 31.7721C12.2598 31.8453 12.3049 31.9081 12.3082 31.987C12.3116 32.0702 12.3542 32.1484 12.3565 32.2313C12.359 32.3213 12.4048 32.404 12.4048 32.4971C12.4048 32.5742 12.4333 32.6363 12.4504 32.7092C12.479 32.8305 12.4532 32.9842 12.4532 33.108C12.4532 33.1872 12.4977 33.2588 12.5014 33.3375C12.5041 33.3928 12.5462 33.4368 12.5498 33.492C12.5514 33.5175 12.5429 33.5499 12.5558 33.5731C12.5766 33.6104 12.562 33.6905 12.562 33.7336C12.562 33.7851 12.562 33.6306 12.562 33.5791" stroke="white" stroke-width="0.375033" stroke-linecap="round"/>
<path d="M12.5152 33.407C12.5152 33.4351 12.515 33.4609 12.5049 33.4875C12.4965 33.5099 12.4982 33.5337 12.4943 33.5571C12.4905 33.5793 12.4818 33.5979 12.4818 33.6205C12.4818 33.6885 12.4818 33.7565 12.4818 33.8245C12.4818 33.8861 12.4714 33.9455 12.4568 34.0044C12.444 34.0551 12.4508 34.1065 12.4376 34.1569C12.4297 34.1875 12.4275 34.2163 12.4275 34.2477C12.4275 34.2742 12.4166 34.2961 12.415 34.3224C12.4135 34.3461 12.4049 34.3763 12.3964 34.398C12.384 34.4302 12.3963 34.3804 12.3973 34.372C12.3996 34.3538 12.4009 34.3383 12.4056 34.32C12.4097 34.3048 12.4134 34.2571 12.4107 34.2727C12.4047 34.3089 12.4015 34.34 12.3866 34.3744C12.3782 34.3937 12.369 34.4106 12.363 34.4304C12.3571 34.4502 12.3501 34.4735 12.3407 34.4917C12.3325 34.5078 12.3278 34.5289 12.3273 34.547C12.327 34.5546 12.3272 34.5521 12.3282 34.5446C12.3309 34.5234 12.3354 34.5025 12.3398 34.4816C12.3575 34.3962 12.3756 34.3113 12.3899 34.2255" stroke="white" stroke-width="0.375033" stroke-linecap="round"/>
<path d="M12.39 34.5342C12.3746 34.5973 12.3647 34.6672 12.3367 34.7267C12.3314 34.738 12.3285 34.7454 12.32 34.7546C12.3073 34.7683 12.294 34.814 12.294 34.768C12.294 34.7514 12.294 34.7346 12.294 34.718C12.294 34.6885 12.2726 34.741 12.2699 34.7481C12.2431 34.8162 12.2209 34.8878 12.1875 34.9529C12.1695 34.988 12.1547 35.023 12.1476 35.0621C12.1405 35.1011 12.1228 35.1371 12.1228 35.1782C12.1228 35.2192 12.1051 35.2549 12.0987 35.2946C12.0935 35.3271 12.0872 35.3601 12.079 35.3922C12.0503 35.5038 12.0429 35.6256 12.0604 35.7392C12.0661 35.7762 12.0729 35.8171 12.0843 35.8526C12.0877 35.8631 12.0934 35.8736 12.0996 35.8828C12.1065 35.8929 12.1114 35.9075 12.1186 35.9162C12.15 35.9542 12.1889 35.9544 12.2272 35.9788C12.2607 36.0002 12.3154 36.0017 12.3545 36.0102C12.3689 36.0133 12.3839 36.0206 12.3986 36.0206C12.4097 36.0206 12.4204 36.0199 12.4311 36.0233C12.4685 36.0351 12.5049 36.0403 12.5433 36.0477C12.5752 36.0538 12.6023 36.0623 12.6349 36.0623C12.6968 36.0623 12.763 36.0562 12.8242 36.0665C12.8621 36.0728 12.8954 36.0791 12.9342 36.0791C12.9782 36.0791 13.0227 36.077 13.0663 36.0832C13.0941 36.0872 13.1227 36.0912 13.1509 36.0916C13.1826 36.0918 13.2066 36.096 13.2369 36.1015C13.2575 36.1053 13.2789 36.1037 13.2997 36.1068C13.3175 36.1096 13.3338 36.1171 13.3514 36.1201C13.3723 36.1236 13.3958 36.1207 13.4168 36.1207C13.4706 36.1207 13.5244 36.1207 13.578 36.1207C13.7063 36.1207 13.8346 36.1207 13.9629 36.1207C13.9813 36.1207 13.9952 36.1276 14.0125 36.1289C14.0354 36.1306 14.0591 36.1291 14.0821 36.1291C14.1545 36.1291 14.2256 36.1375 14.298 36.1375C14.4288 36.1375 14.5592 36.1416 14.69 36.1416C14.743 36.1416 14.7956 36.1459 14.8487 36.1459C14.9002 36.1459 14.9526 36.1427 15.0036 36.15" stroke="white" stroke-width="0.375033" stroke-linecap="round"/>
<path d="M15.0446 36.1201H21.6897" stroke="white" stroke-width="0.375033" stroke-linecap="round"/>
<path d="M12.3247 31.0852C12.3413 31.3669 12.4467 31.633 12.4754 31.9109C12.4907 32.0598 12.5515 32.2227 12.6157 32.3567C12.7611 32.66 12.8177 32.9976 12.8177 33.3317C12.8177 33.6661 12.8177 34.0005 12.8177 34.3347C12.8177 34.4594 12.7707 34.549 12.7438 34.6669C12.7108 34.8112 12.6463 34.9398 12.6013 35.0797C12.5897 35.1162 12.5964 35.1586 12.5959 35.1961C12.5953 35.2377 12.5808 35.2723 12.5739 35.3125C12.5675 35.3498 12.5714 35.3846 12.5562 35.4207C12.5488 35.4382 12.516 35.5205 12.5239 35.4583C12.5405 35.3282 12.5773 35.1974 12.6034 35.0688C12.6498 34.8403 12.6838 34.6089 12.7342 34.3814C12.7598 34.2655 12.7784 34.1536 12.7807 34.0348C12.7829 33.9191 12.7674 34.0313 12.7472 34.0876C12.6903 34.2455 12.6265 34.4011 12.5725 34.56C12.526 34.697 12.4963 34.839 12.4487 34.9757C12.406 35.0977 12.3943 35.2226 12.3425 35.34C12.3066 35.4212 12.1538 35.6227 12.2658 35.6919C12.4907 35.8305 12.7066 35.8548 12.9628 35.8548C13.1876 35.8548 13.4307 35.8295 13.653 35.8624C13.7549 35.8774 13.8587 35.8918 13.9598 35.9109C14.027 35.9236 14.0844 35.9506 14.1542 35.9528C14.4203 35.9608 14.6877 35.9534 14.954 35.9534C15.084 35.9534 15.227 35.9704 15.3559 35.952C15.4424 35.9396 15.5307 35.9078 15.6174 35.8918C15.7291 35.8711 15.8447 35.8623 15.9536 35.8301C16.3225 35.7212 16.7317 35.7562 17.1114 35.7562C17.6909 35.7562 18.2704 35.7562 18.8499 35.7562C19.1954 35.7562 19.5409 35.7562 19.8864 35.7562C19.9438 35.7562 20.0011 35.7562 20.0583 35.7562C20.1161 35.7562 20.0932 35.789 20.1261 35.8055" stroke="white" stroke-width="0.375033" stroke-linecap="round"/>
<path d="M19.3744 35.6575C19.094 35.6436 18.8135 35.6073 18.5329 35.589C18.271 35.5721 18.0171 35.5125 17.7613 35.4576C17.481 35.3975 17.2012 35.3399 16.9218 35.2761C16.6493 35.214 16.3704 35.1862 16.0974 35.1262C15.5662 35.0095 15.0462 34.7384 14.6116 34.4142C14.4753 34.3123 14.3922 34.1923 14.2912 34.0588C14.2206 33.9655 14.1307 33.9026 14.0378 33.8335C13.9503 33.7684 13.89 33.683 13.8222 33.5986C13.7492 33.5078 13.6728 33.4163 13.6093 33.3186C13.5053 33.1585 13.4025 32.9979 13.2984 32.8379C13.2343 32.7394 13.2065 32.6256 13.1574 32.5216C13.1341 32.4725 13.0663 32.3439 13.0643 32.4764C13.0598 32.7706 13.0643 33.0654 13.0643 33.3597C13.0643 33.476 13.0855 33.6146 13.0588 33.7281C13.0316 33.8431 12.9859 33.9609 12.9684 34.0773C12.9534 34.1774 12.9176 34.2789 12.9164 34.3785C12.9151 34.4804 12.904 34.5814 12.904 34.6839C12.904 34.7806 12.9059 34.8775 12.904 34.9742C12.9025 35.0561 12.8646 35.1277 12.8451 35.2056C12.8267 35.2792 12.7966 35.3582 12.7712 35.4303C12.7506 35.4886 12.7506 35.5518 12.7342 35.611C12.7168 35.6738 12.7749 35.6175 12.7937 35.6014C12.8441 35.5584 12.91 35.5096 12.9479 35.4549C12.9765 35.4134 12.9967 35.3594 13.0095 35.3111C13.0256 35.2494 13.0608 35.1959 13.0765 35.1343C13.1271 34.9376 13.1323 34.7318 13.1629 34.5319C13.177 34.4395 13.2054 34.35 13.2176 34.2573C13.2276 34.181 13.2195 34.1043 13.2271 34.028C13.2348 33.9527 13.2553 33.8835 13.2724 33.8102C13.2902 33.7341 13.2914 33.6555 13.3134 33.5802C13.3339 33.5103 13.3512 33.4474 13.36 33.3747C13.3637 33.3446 13.3839 33.2727 13.3847 33.3487C13.3877 33.6581 13.3847 33.9677 13.3847 34.2771C13.3847 34.5402 13.4077 34.8148 13.3724 35.0755C13.3572 35.1876 13.3139 35.2919 13.3108 35.4055C13.3098 35.4413 13.2559 35.5158 13.2244 35.5315C13.1811 35.5531 13.1013 35.618 13.1013 35.5398C13.1013 35.1203 13.1843 34.6881 13.2641 34.2771C13.3217 33.9816 13.2984 33.6748 13.2984 33.3747C13.2984 33.2319 13.2984 33.089 13.2984 32.9462" stroke="white" stroke-width="0.375033" stroke-linecap="round"/>
<path d="M13.0889 32.0588C13.4394 32.2937 13.7502 32.5816 14.0995 32.8189C14.2891 32.9477 14.4831 33.0837 14.6898 33.1846C14.7189 33.1988 14.8508 33.2626 14.7499 33.1982C14.2116 32.8547 13.6386 32.5793 13.0848 32.2644C12.995 32.2132 13.2098 32.4302 13.286 32.4999C13.552 32.7422 13.8954 32.9063 14.2119 33.0709C14.3124 33.1232 14.4179 33.1832 14.5281 33.2147C14.5638 33.2248 14.4584 33.1893 14.4226 33.1791C14.1901 33.1122 13.9583 33.0584 13.7188 33.0216C13.6902 33.0172 13.6049 33.0068 13.6318 33.0174C13.7054 33.0466 13.7861 33.0666 13.8626 33.0846C14.357 33.2012 14.863 33.2763 15.3607 33.379C15.5721 33.4226 15.7837 33.4653 15.9954 33.5077C16.0454 33.5177 16.1964 33.5378 16.1454 33.5378C16.065 33.5378 15.9686 33.5158 15.8934 33.503C15.5341 33.4412 15.1768 33.3757 14.8143 33.3338C14.4648 33.2934 14.112 33.2654 13.7599 33.2639C13.6962 33.2637 13.6283 33.2638 13.5654 33.2791C13.4579 33.305 13.6451 33.3725 13.6641 33.3776C13.9556 33.4566 14.2731 33.4386 14.5719 33.4392C14.673 33.4395 14.7825 33.4295 14.8835 33.4413C14.9245 33.4461 14.8035 33.4648 14.7623 33.468C14.4496 33.4921 14.1335 33.472 13.8202 33.479C13.7609 33.4802 13.6843 33.4758 13.6243 33.4878C13.562 33.5003 13.7512 33.4886 13.8147 33.4886C14.2782 33.4886 14.743 33.4835 15.2059 33.5132C15.2599 33.5166 15.419 33.5347 15.3655 33.5426C15.2549 33.559 15.1346 33.55 15.0238 33.5502C14.6111 33.551 14.1969 33.539 13.7846 33.5583C13.6737 33.5636 13.343 33.5761 13.4532 33.5899C13.8437 33.6387 14.2466 33.6211 14.639 33.6241C15.0553 33.6272 15.4787 33.6294 15.8906 33.6981C15.8974 33.6992 15.9049 33.6996 15.9105 33.7035C15.9234 33.7125 15.8796 33.7094 15.864 33.7097C15.7475 33.7125 15.6306 33.7104 15.5141 33.7104C15.0774 33.7104 14.6366 33.6929 14.2009 33.7241C14.0718 33.7334 13.9383 33.7469 13.8119 33.7761C13.7596 33.7882 13.7733 33.7989 13.8174 33.809C14.1185 33.8779 14.4355 33.8983 14.7432 33.9049C14.926 33.9088 15.1093 33.9076 15.2922 33.9076C15.3417 33.9076 15.4342 33.8964 15.4881 33.9103C15.5118 33.9165 15.4393 33.9186 15.4148 33.9193C15.2746 33.9223 15.1339 33.9196 14.9937 33.9199C14.6188 33.9205 14.2091 33.8833 13.8393 33.9638C13.7529 33.9825 13.8677 34.0038 13.8832 34.0069C14.053 34.04 14.2285 34.0453 14.4007 34.05C14.8538 34.0624 15.3075 34.0555 15.7606 34.0555C16.5749 34.0555 14.1318 34.048 13.3175 34.0583C13.177 34.06 13.0326 34.0584 12.8924 34.0739C12.8444 34.0793 12.8456 34.0881 12.8917 34.1006C13.3593 34.2275 13.8586 34.2748 14.3377 34.3307C14.931 34.4 15.5311 34.4467 16.1139 34.5841C16.1458 34.5916 16.2358 34.6094 16.1405 34.6156C15.9749 34.6263 15.8072 34.6222 15.6415 34.6224C15.1223 34.6232 14.5939 34.5944 14.0762 34.6402C14.0293 34.6443 13.9007 34.6444 13.9386 34.6723C13.9858 34.7072 14.1518 34.7115 14.1954 34.7156C14.8204 34.7732 15.4555 34.7445 16.0824 34.7456C16.1221 34.7457 16.1618 34.7456 16.2015 34.7463C16.2888 34.7478 16.1874 34.7512 16.17 34.7518C15.911 34.76 15.6514 34.7577 15.3922 34.758C14.7905 34.7585 14.1889 34.7546 13.5873 34.7676C13.513 34.7692 13.5984 34.7463 13.6188 34.7402C13.7487 34.7012 13.8807 34.6702 14.0118 34.6361C14.031 34.6312 14.1746 34.6086 14.1974 34.5799C14.2232 34.5477 14.1175 34.5564 14.0762 34.5539C13.7981 34.5367 13.5138 34.5431 13.2354 34.5512C13.1906 34.5526 13.0575 34.5604 13.1019 34.5663C13.2325 34.5836 13.3744 34.5728 13.5052 34.5731C13.8402 34.5737 14.1752 34.5731 14.5104 34.5731C14.9414 34.5731 13.6284 34.5246 13.2204 34.6634C13.0604 34.718 13.2939 34.8288 13.3463 34.8525C13.6701 34.9977 14.0248 35.0586 14.3734 35.1099C14.4434 35.1202 14.5139 35.1312 14.5843 35.1386C14.5988 35.1402 14.6163 35.14 14.587 35.14C14.3119 35.14 14.0362 35.1351 13.7613 35.1455C13.6454 35.1499 13.5155 35.1504 13.4039 35.1886C13.3175 35.2181 13.4345 35.2229 13.449 35.2236C13.9937 35.2477 14.5431 35.2251 15.0882 35.2262C15.2462 35.2266 15.4136 35.2184 15.5716 35.2386C15.5831 35.2401 15.5954 35.2405 15.6059 35.2455C15.6249 35.2545 15.564 35.2507 15.5428 35.251C15.0573 35.2546 14.5713 35.2426 14.0858 35.2564C13.939 35.2606 13.7717 35.2563 13.6278 35.2955C13.5164 35.3259 13.6829 35.357 13.6956 35.3591C13.935 35.3989 14.1861 35.3938 14.4275 35.3968C14.7116 35.4003 14.9958 35.3989 15.2799 35.3989C15.3727 35.3989 15.4742 35.391 15.5675 35.3995C15.6294 35.4051 15.4433 35.4073 15.3812 35.4084C14.9974 35.416 14.6134 35.4049 14.2296 35.4166C14.0516 35.4221 13.8719 35.4274 13.6948 35.4475C13.6718 35.45 13.6128 35.4714 13.6339 35.481C13.7373 35.5283 13.8732 35.544 13.9817 35.557C14.3024 35.5954 14.6261 35.6009 14.9485 35.6057C15.1819 35.609 15.4156 35.6053 15.649 35.6098C15.677 35.6103 15.8386 35.5994 15.8756 35.6275C15.8806 35.6314 15.8634 35.6313 15.8571 35.6317C15.8225 35.6339 15.6699 35.633 15.664 35.633C15.4456 35.633 15.2272 35.633 15.0088 35.633C14.5788 35.633 14.1422 35.6129 13.7133 35.6522C13.7003 35.6534 13.6266 35.6577 13.7072 35.6577C13.8703 35.6577 14.0336 35.6577 14.1967 35.6577C14.8599 35.6577 15.5232 35.6577 16.1864 35.6577C16.3112 35.6577 16.4388 35.6524 16.5637 35.6583C16.6342 35.6617 16.4227 35.6663 16.3522 35.6673C15.0238 35.6855 13.6943 35.67 12.3659 35.67C11.3488 35.67 14.3999 35.6665 15.4168 35.67C15.7084 35.6709 16.5818 35.6952 16.2905 35.7069C16.0568 35.7164 15.8206 35.7069 15.5866 35.7069C15.4552 35.7069 15.0612 35.6997 15.1923 35.7097C15.6632 35.7459 16.1508 35.6765 16.6164 35.6179C16.8713 35.5859 17.1256 35.5459 17.3785 35.5009C17.4619 35.486 17.548 35.4724 17.6284 35.444C17.6739 35.428 17.6548 35.4211 17.6168 35.418C17.4843 35.407 17.349 35.4114 17.2162 35.4111C16.6204 35.4103 14.8342 35.412 15.4292 35.4426C16.1151 35.478 16.8091 35.4481 17.4956 35.4481C17.7647 35.4481 18.0338 35.4481 18.3028 35.4481C18.352 35.4481 18.4987 35.4443 18.4501 35.4509C18.3328 35.4668 18.1983 35.4593 18.0837 35.4598C17.5938 35.4621 17.1037 35.4605 16.6137 35.4605C15.7574 35.4605 14.901 35.4605 14.0447 35.4605C14.0007 35.4605 13.9566 35.4605 13.9126 35.4605C13.8918 35.4605 13.8711 35.4605 13.8503 35.4605C13.8393 35.4605 13.8722 35.4605 13.8832 35.4605C14.1397 35.4605 14.3962 35.4609 14.6528 35.4605C15.1707 35.4596 15.6885 35.456 16.2063 35.4475C16.5033 35.4426 16.8058 35.4453 17.1026 35.4208C17.1402 35.4176 17.2485 35.4064 17.2129 35.394C17.1285 35.3649 16.9148 35.387 16.8492 35.3865C15.9944 35.3805 15.1426 35.327 14.2885 35.2961C14.1685 35.2918 13.8082 35.2879 13.9283 35.2879C14.0867 35.2879 14.2451 35.2888 14.4035 35.2879C15.5357 35.2821 16.6771 35.2621 17.8009 35.114C17.9532 35.094 18.1636 35.0799 18.3138 35.025C18.3756 35.0025 18.1857 34.9911 18.1201 34.988C17.317 34.95 16.5067 34.9798 15.7031 34.9798C15.1951 34.9798 13.6709 34.9798 14.179 34.9798C14.6929 34.9798 15.2069 34.9798 15.7209 34.9798C16.4074 34.9798 17.0939 34.9798 17.7804 34.9798C18.3062 34.9798 16.7287 34.9798 16.2029 34.9798C15.5876 34.9798 13.7417 34.9828 14.357 34.9798C15.1242 34.9761 15.8794 34.8963 16.6369 34.7745C16.7397 34.7578 16.8422 34.7395 16.9445 34.7196C16.9989 34.7091 17.1424 34.7041 17.1019 34.6662C17.0359 34.6044 16.7468 34.6207 16.6822 34.6183C16.058 34.5951 15.4331 34.6169 14.8089 34.5909C14.785 34.5899 14.7613 34.5894 14.7376 34.5868C14.6864 34.5811 14.8408 34.5854 14.8924 34.5854C15.1941 34.5854 15.4958 34.5867 15.7975 34.5854C16.1533 34.5839 16.5111 34.5859 16.8657 34.5532C16.9301 34.5473 17.1154 34.5117 17.0519 34.4992C16.8691 34.4629 16.6561 34.4774 16.4733 34.4759C16.1061 34.4727 15.7389 34.4753 15.3717 34.4746C15.2348 34.4742 14.8312 34.4991 14.9615 34.4574C15.1251 34.405 15.3145 34.3965 15.4826 34.3663C15.601 34.345 15.7694 34.334 15.8811 34.2773C15.9451 34.2448 15.836 34.203 15.8195 34.1965C15.657 34.133 15.4691 34.122 15.2963 34.1171C15.2902 34.1169 15.2279 34.1176 15.2847 34.1095C15.3917 34.0943 15.5 34.0876 15.6072 34.0746C15.7557 34.0566 15.9034 34.0329 16.0509 34.0083C16.0863 34.0023 16.2063 33.9961 16.2453 33.9691C16.269 33.9529 16.1885 33.9583 16.1598 33.9589C16.0864 33.9605 16.0128 33.9673 15.94 33.976C15.8271 33.9896 15.9385 34.0221 15.9865 34.0363C16.0106 34.0434 16.1574 34.0623 16.1673 34.091C16.1827 34.1361 16.2012 34.1804 16.2165 34.2253C16.2477 34.3158 16.1432 34.4368 16.0741 34.4786C15.9835 34.5336 15.8521 34.5159 15.751 34.5334C15.6636 34.5484 15.5731 34.5948 15.5223 34.6703C15.4641 34.7568 15.4385 34.8762 15.4333 34.9785C15.4267 35.1077 15.4181 35.2494 15.4361 35.3783C15.4523 35.4955 15.5833 35.5569 15.6935 35.559C15.9671 35.5645 16.2414 35.559 16.5151 35.559" stroke="white" stroke-width="0.375033" stroke-linecap="round"/>
<path d="M14.0997 34.2282C13.9305 34.0929 13.7684 33.9576 13.6368 33.7844C13.6091 33.7481 13.5959 33.7085 13.5696 33.6733" stroke="white" stroke-width="0.375033" stroke-linecap="round"/>
<path d="M13.5817 34.1043C13.5536 34.0313 13.4956 33.9392 13.4956 33.8582" stroke="white" stroke-width="0.375033" stroke-linecap="round"/>
<path d="M11.2012 30.2368C11.2692 30.3313 11.3338 30.4373 11.3604 30.5507C11.3771 30.6214 11.4065 30.6895 11.4246 30.7601C11.4347 30.7999 11.4586 30.8264 11.4618 30.8676C11.4631 30.8845 11.4858 30.9049 11.4918 30.9235C11.4986 30.9448 11.4984 30.9678 11.513 30.9856C11.5542 31.0359 11.6077 31.1385 11.6107 31.2069C11.6161 31.327 11.6792 31.4394 11.6852 31.5586C11.6868 31.5913 11.6956 31.6427 11.7131 31.6702C11.7408 31.7137 11.7466 31.7782 11.7829 31.8146C11.8172 31.8488 11.827 31.9312 11.8434 31.9753C11.8707 32.0486 11.8921 32.1426 11.8998 32.22C11.9058 32.2796 11.9321 32.3393 11.9365 32.3984C11.9389 32.4299 11.9521 32.4599 11.9624 32.4894C11.9821 32.5461 11.9738 32.608 11.9882 32.6657C12.0095 32.7508 12.0186 32.8255 12.0203 32.9124C12.0212 32.9573 12.0443 32.9972 12.0534 33.0406C12.0668 33.1046 12.0575 33.1777 12.0575 33.2428C12.0575 33.3143 12.0575 33.3858 12.0575 33.4574C12.0575 33.4715 12.0575 33.5519 12.0575 33.5024C12.0575 33.464 12.0575 33.4255 12.0575 33.3871C12.0575 33.3306 12.0536 33.2768 12.0487 33.2211C12.046 33.1892 12.0288 33.168 12.0208 33.1373C12.0167 33.1214 12.0017 33.0688 12.0017 33.1131C12.0017 33.2612 12.0086 33.4031 11.9758 33.5464C11.9635 33.6004 11.9738 33.6691 11.9738 33.7243C11.9738 33.7971 11.977 33.8708 11.9738 33.9435C11.971 34.0048 11.9338 34.066 11.9277 34.127C11.9219 34.1849 11.8963 34.2348 11.8853 34.2899C11.8686 34.3738 11.8554 34.4573 11.8414 34.5413C11.8333 34.5897 11.8066 34.6318 11.799 34.6798C11.7914 34.7276 11.7919 34.7635 11.7741 34.8102C11.7465 34.883 11.7252 34.9759 11.7224 35.0542C11.7209 35.0976 11.6941 35.127 11.6873 35.168C11.6818 35.2011 11.6851 35.2365 11.6702 35.2679C11.6504 35.3096 11.6141 35.3619 11.6107 35.41C11.6095 35.4274 11.5881 35.4673 11.6014 35.4255C11.6113 35.3948 11.6105 35.3639 11.6206 35.333C11.6433 35.2629 11.6335 35.1935 11.6614 35.1246C11.6787 35.0819 11.6972 35.0355 11.7178 34.9942C11.7238 34.9822 11.7416 34.9282 11.741 34.9529C11.7397 35.0106 11.725 35.073 11.7111 35.1288C11.6989 35.1775 11.691 35.232 11.6749 35.2793C11.6456 35.3649 11.6364 35.4552 11.6128 35.5424C11.6037 35.576 11.5735 35.6879 11.5735 35.5937C11.5735 35.5544 11.5737 35.5233 11.5875 35.4865C11.5937 35.47 11.612 35.3941 11.6107 35.441C11.6094 35.4877 11.5928 35.53 11.5776 35.5734C11.5672 35.6035 11.577 35.637 11.5689 35.6681C11.5681 35.6711 11.5442 35.7789 11.5363 35.7711C11.5141 35.7488 11.5378 35.5583 11.5549 35.5378C11.5945 35.4903 11.5435 35.6617 11.527 35.7213C11.5186 35.7517 11.5151 35.7828 11.5083 35.8134C11.4993 35.8541 11.499 35.8919 11.499 35.9333C11.499 35.998 11.5676 35.9918 11.6118 36.0083C11.7155 36.0472 11.8324 36.0132 11.936 36.0586C11.9688 36.0728 12.0331 36.0798 12.0689 36.0823C12.0901 36.0837 12.105 36.1002 12.1248 36.101C12.1474 36.1017 12.1703 36.101 12.193 36.101C12.2165 36.101 12.262 36.1065 12.223 36.0771C12.1564 36.0272 12.0724 35.9977 12.0296 35.9199C11.976 35.8224 11.9272 35.7084 11.9272 35.5962C11.9272 35.5719 11.9387 35.4088 11.9122 35.4985C11.8909 35.5705 11.8635 35.6394 11.8357 35.7089C11.8213 35.7451 11.8237 35.7867 11.8062 35.8217C11.7683 35.8974 11.8481 35.657 11.8776 35.5775C11.9206 35.4617 11.9728 35.3493 12.01 35.2311C12.0452 35.1189 12.0636 35.0017 12.0844 34.8862C12.1136 34.7238 12.1446 34.5595 12.1858 34.3996C12.2015 34.3386 12.2058 34.2762 12.223 34.2155C12.2396 34.1572 12.2322 34.094 12.2499 34.0377C12.2811 33.9384 12.3165 33.8178 12.3182 33.7119C12.3197 33.6114 12.3182 33.5109 12.3182 33.4103C12.3182 33.3307 12.3282 33.2437 12.3176 33.1647C12.3081 33.0929 12.3108 33.0203 12.2902 32.9496C12.2755 32.8989 12.2746 32.8434 12.2644 32.7914C12.2565 32.7513 12.237 32.7165 12.2297 32.6755C12.2162 32.5995 12.1982 32.5208 12.1785 32.4459C12.1513 32.3419 12.1377 32.233 12.1046 32.131C12.0748 32.0394 12.0682 31.9365 12.0317 31.8481C12.0016 31.7755 12.0002 31.6896 11.9738 31.6154C11.9447 31.5342 11.9584 31.4358 11.9231 31.3589C11.8983 31.305 11.8976 31.2314 11.8341 31.2234" stroke="white" stroke-width="0.375033" stroke-linecap="round"/>
<path d="M11.4873 31.0044C11.4901 31.1023 11.5088 31.2008 11.5197 31.298C11.5283 31.3757 11.5255 31.248 11.5234 31.2313C11.5195 31.1994 11.5054 31.1705 11.5018 31.1388C11.4966 31.0916 11.5097 31.1779 11.513 31.1885C11.5563 31.3262 11.6196 31.451 11.6515 31.5928C11.6664 31.659 11.6837 31.7242 11.7005 31.7898C11.712 31.8349 11.7149 31.8756 11.7374 31.9176C11.7761 31.9899 11.8121 32.0783 11.8224 32.1605C11.8295 32.2172 11.8483 32.2709 11.8605 32.3273C11.8737 32.3875 11.8755 32.4508 11.8755 32.5121C11.8755 32.6948 11.8755 32.8774 11.8755 33.06C11.8755 33.1387 11.8755 33.2173 11.8755 33.296C11.8755 33.3672 11.8973 33.4351 11.8887 33.5092C11.8844 33.5467 11.8873 33.5893 11.8721 33.624C11.8605 33.6505 11.8531 33.6852 11.8531 33.714C11.8531 33.7577 11.843 33.8088 11.8344 33.8517C11.8253 33.8971 11.83 33.942 11.8195 33.9876C11.7976 34.0824 11.7677 34.1773 11.7556 34.2742C11.7431 34.3746 11.7017 34.4731 11.6963 34.5757C11.6936 34.6277 11.6734 34.6786 11.6623 34.7292C11.653 34.7716 11.643 34.8134 11.6349 34.8561C11.6177 34.9477 11.5876 35.0413 11.5582 35.1293C11.5303 35.213 11.5152 35.3018 11.5022 35.3889C11.4925 35.4548 11.4724 35.5131 11.4724 35.5801" stroke="white" stroke-width="0.375033" stroke-linecap="round"/>
<path d="M10.5386 29.2302C10.857 29.8344 11.0096 30.202 11.2428 30.8162" stroke="white" stroke-width="0.125011" stroke-linecap="round"/>
</g>
<path d="M60.2121 28.2651L57.004 16.5327H58.4477L60.8996 26.0883H61.0142L63.5118 16.5327H65.116L67.6136 26.0883H67.7282L70.1801 16.5327H71.6238L68.4157 28.2651H66.9491L64.3598 18.9159H64.268L61.6786 28.2651H60.2121ZM76.0808 28.4485C75.2328 28.4485 74.5015 28.2614 73.8866 27.887C73.2755 27.5089 72.8039 26.982 72.4715 26.3059C72.1432 25.6262 71.979 24.8356 71.979 23.9343C71.979 23.033 72.1432 22.2386 72.4715 21.5512C72.8039 20.8598 73.2661 20.3214 73.8579 19.9356C74.4538 19.5461 75.1488 19.3513 75.9431 19.3513C76.4016 19.3513 76.8541 19.4276 77.3009 19.5805C77.7478 19.7333 78.1546 19.9815 78.5211 20.3251C78.8878 20.6651 79.18 21.1158 79.3976 21.6772C79.6154 22.2386 79.7241 22.9298 79.7241 23.751V24.3239H72.9414V23.1551H78.3493C78.3493 22.6587 78.25 22.2156 78.0514 21.8261C77.8566 21.4365 77.5779 21.129 77.2151 20.9039C76.8559 20.6785 76.4321 20.5657 75.9431 20.5657C75.4047 20.5657 74.9388 20.6995 74.5454 20.9669C74.1558 21.2304 73.8561 21.574 73.646 21.998C73.4359 22.422 73.3309 22.8763 73.3309 23.3615V24.1405C73.3309 24.805 73.4455 25.3684 73.6746 25.8305C73.9076 26.2888 74.2303 26.6383 74.6428 26.8788C75.0552 27.1156 75.5346 27.234 76.0808 27.234C76.4358 27.234 76.7566 27.1845 77.0431 27.0851C77.3334 26.982 77.5836 26.8292 77.7936 26.6267C78.0037 26.4205 78.166 26.1646 78.2806 25.8591L79.5867 26.2258C79.4492 26.6687 79.2181 27.0584 78.8935 27.3945C78.5688 27.7267 78.1679 27.9864 77.6905 28.1736C77.213 28.3569 76.6765 28.4485 76.0808 28.4485ZM81.9641 28.2651V16.5327H83.316V20.8637H83.4306C83.5299 20.7109 83.6674 20.5162 83.8432 20.2794C84.0226 20.0388 84.2786 19.8248 84.6108 19.6376C84.9469 19.4467 85.4014 19.3513 85.9743 19.3513C86.7152 19.3513 87.3682 19.5365 87.9335 19.907C88.4986 20.2774 88.9397 20.8025 89.2568 21.4824C89.5738 22.1622 89.7322 22.9642 89.7322 23.8885C89.7322 24.8203 89.5738 25.628 89.2568 26.3116C88.9397 26.9915 88.5007 27.5185 87.9392 27.8928C87.3778 28.2633 86.7305 28.4485 85.9972 28.4485C85.4319 28.4485 84.9793 28.3549 84.6394 28.1678C84.2996 27.9768 84.0379 27.761 83.8546 27.5205C83.6713 27.276 83.5299 27.0735 83.4306 26.9132H83.2703V28.2651H81.9641ZM83.2932 23.8656C83.2932 24.53 83.3906 25.1164 83.5854 25.6242C83.7802 26.1283 84.0647 26.5237 84.4389 26.8101C84.8133 27.0927 85.2715 27.234 85.8138 27.234C86.3791 27.234 86.8508 27.0851 87.2289 26.7872C87.6107 26.4854 87.8972 26.0806 88.0881 25.5728C88.2829 25.0609 88.3803 24.4919 88.3803 23.8656C88.3803 23.2469 88.2849 22.6893 88.0938 22.1927C87.9068 21.6925 87.6221 21.2971 87.2403 21.0069C86.8622 20.7128 86.3867 20.5657 85.8138 20.5657C85.2638 20.5657 84.8017 20.7052 84.4275 20.984C84.0532 21.2589 83.7706 21.6448 83.5797 22.1411C83.3886 22.6339 83.2932 23.2086 83.2932 23.8656ZM95.3751 28.4485C94.5502 28.4485 93.8397 28.2537 93.244 27.8642C92.6483 27.4747 92.1899 26.9381 91.8691 26.2543C91.5483 25.5707 91.388 24.7898 91.388 23.9113C91.388 23.0177 91.5522 22.229 91.8805 21.5454C92.2129 20.858 92.675 20.3214 93.2669 19.9356C93.8627 19.5461 94.5578 19.3513 95.3521 19.3513C95.9708 19.3513 96.5284 19.4659 97.025 19.6949C97.5215 19.9242 97.9282 20.245 98.2451 20.6575C98.5622 21.0699 98.7588 21.5512 98.8353 22.1012H97.4832C97.3802 21.7 97.151 21.345 96.7958 21.0356C96.4444 20.7224 95.9708 20.5657 95.3751 20.5657C94.848 20.5657 94.3859 20.7032 93.9888 20.9783C93.5954 21.2493 93.2879 21.6332 93.0664 22.1297C92.8488 22.6224 92.7399 23.201 92.7399 23.8656C92.7399 24.5453 92.8468 25.1374 93.0607 25.6415C93.2785 26.1456 93.584 26.537 93.9773 26.8158C94.3744 27.0946 94.8404 27.234 95.3751 27.234C95.7265 27.234 96.0453 27.1729 96.3318 27.0507C96.6183 26.9285 96.8608 26.7528 97.0594 26.5237C97.2579 26.2945 97.3992 26.0196 97.4832 25.6988H98.8353C98.7588 26.2182 98.5698 26.686 98.2682 27.1023C97.9702 27.5147 97.575 27.8432 97.0823 28.0877C96.5934 28.3282 96.0243 28.4485 95.3751 28.4485ZM102.164 22.9718V28.2651H100.812V16.5327H102.164V20.8408H102.278C102.485 20.3863 102.794 20.0253 103.206 19.758C103.623 19.4869 104.176 19.3513 104.868 19.3513C105.467 19.3513 105.992 19.4716 106.443 19.7123C106.894 19.949 107.243 20.3137 107.491 20.8064C107.743 21.2952 107.869 21.9178 107.869 22.674V28.2651H106.518V22.7656C106.518 22.0667 106.336 21.5263 105.973 21.1443C105.614 20.7587 105.116 20.5657 104.478 20.5657C104.035 20.5657 103.638 20.6593 103.286 20.8465C102.939 21.0336 102.664 21.3066 102.461 21.6658C102.263 22.0247 102.164 22.4601 102.164 22.9718ZM112.932 28.4715C112.375 28.4715 111.869 28.3665 111.414 28.1564C110.96 27.9425 110.599 27.635 110.331 27.234C110.064 26.8292 109.93 26.3404 109.93 25.7675C109.93 25.2634 110.03 24.8547 110.228 24.5415C110.427 24.2245 110.692 23.9763 111.025 23.7967C111.357 23.6172 111.724 23.4836 112.124 23.3958C112.529 23.3042 112.936 23.2316 113.345 23.1781C113.879 23.1094 114.313 23.0578 114.645 23.0234C114.981 22.9852 115.226 22.9222 115.378 22.8343C115.535 22.7464 115.613 22.5937 115.613 22.3761V22.3302C115.613 21.7651 115.459 21.3258 115.149 21.0126C114.844 20.6995 114.38 20.5429 113.757 20.5429C113.112 20.5429 112.606 20.6842 112.239 20.9669C111.872 21.2493 111.615 21.5512 111.466 21.8719L110.182 21.4137C110.412 20.879 110.717 20.4627 111.099 20.1648C111.485 19.863 111.905 19.6529 112.359 19.5346C112.818 19.4125 113.268 19.3513 113.711 19.3513C113.994 19.3513 114.319 19.3856 114.685 19.4545C115.056 19.5193 115.413 19.655 115.757 19.8611C116.104 20.0673 116.392 20.3787 116.621 20.795C116.851 21.2112 116.965 21.7688 116.965 22.4677V28.2651H115.613V27.0735H115.544C115.453 27.2646 115.3 27.469 115.086 27.6866C114.872 27.9044 114.588 28.0895 114.233 28.2423C113.877 28.395 113.444 28.4715 112.932 28.4715ZM113.138 27.2569C113.673 27.2569 114.124 27.1519 114.491 26.9418C114.861 26.7317 115.14 26.4607 115.327 26.1283C115.518 25.7961 115.613 25.4467 115.613 25.0801V23.8426C115.556 23.9113 115.43 23.9743 115.235 24.0316C115.044 24.0851 114.823 24.1328 114.571 24.1748C114.322 24.2131 114.08 24.2474 113.843 24.278C113.61 24.3047 113.421 24.3277 113.276 24.3467C112.925 24.3926 112.596 24.467 112.291 24.5702C111.989 24.6695 111.745 24.8203 111.557 25.0228C111.374 25.2214 111.282 25.4924 111.282 25.8362C111.282 26.3059 111.456 26.6612 111.804 26.9018C112.155 27.1386 112.6 27.2569 113.138 27.2569ZM123.26 19.4659V20.6116H118.7V19.4659H123.26ZM120.029 17.3576H121.381V25.7445C121.381 26.1265 121.436 26.413 121.547 26.6039C121.661 26.7911 121.807 26.9171 121.982 26.982C122.162 27.0431 122.351 27.0735 122.549 27.0735C122.698 27.0735 122.821 27.066 122.916 27.0507C123.011 27.0315 123.088 27.0164 123.145 27.0048L123.42 28.2194C123.328 28.2537 123.201 28.2882 123.036 28.3224C122.872 28.3608 122.664 28.3797 122.412 28.3797C122.03 28.3797 121.656 28.2977 121.289 28.1334C120.926 27.9692 120.624 27.719 120.384 27.3829C120.147 27.0468 120.029 26.623 120.029 26.1112V17.3576Z" fill="url(#paint1_linear_114_162)"/>
<path d="M60.2121 28.2651L57.004 16.5327H58.4477L60.8996 26.0883H61.0142L63.5118 16.5327H65.116L67.6136 26.0883H67.7282L70.1801 16.5327H71.6238L68.4157 28.2651H66.9491L64.3598 18.9159H64.268L61.6786 28.2651H60.2121ZM76.0808 28.4485C75.2328 28.4485 74.5015 28.2614 73.8866 27.887C73.2755 27.5089 72.8039 26.982 72.4715 26.3059C72.1432 25.6262 71.979 24.8356 71.979 23.9343C71.979 23.033 72.1432 22.2386 72.4715 21.5512C72.8039 20.8598 73.2661 20.3214 73.8579 19.9356C74.4538 19.5461 75.1488 19.3513 75.9431 19.3513C76.4016 19.3513 76.8541 19.4276 77.3009 19.5805C77.7478 19.7333 78.1546 19.9815 78.5211 20.3251C78.8878 20.6651 79.18 21.1158 79.3976 21.6772C79.6154 22.2386 79.7241 22.9298 79.7241 23.751V24.3239H72.9414V23.1551H78.3493C78.3493 22.6587 78.25 22.2156 78.0514 21.8261C77.8566 21.4365 77.5779 21.129 77.2151 20.9039C76.8559 20.6785 76.4321 20.5657 75.9431 20.5657C75.4047 20.5657 74.9388 20.6995 74.5454 20.9669C74.1558 21.2304 73.8561 21.574 73.646 21.998C73.4359 22.422 73.3309 22.8763 73.3309 23.3615V24.1405C73.3309 24.805 73.4455 25.3684 73.6746 25.8305C73.9076 26.2888 74.2303 26.6383 74.6428 26.8788C75.0552 27.1156 75.5346 27.234 76.0808 27.234C76.4358 27.234 76.7566 27.1845 77.0431 27.0851C77.3334 26.982 77.5836 26.8292 77.7936 26.6267C78.0037 26.4205 78.166 26.1646 78.2806 25.8591L79.5867 26.2258C79.4492 26.6687 79.2181 27.0584 78.8935 27.3945C78.5688 27.7267 78.1679 27.9864 77.6905 28.1736C77.213 28.3569 76.6765 28.4485 76.0808 28.4485ZM81.9641 28.2651V16.5327H83.316V20.8637H83.4306C83.5299 20.7109 83.6674 20.5162 83.8432 20.2794C84.0226 20.0388 84.2786 19.8248 84.6108 19.6376C84.9469 19.4467 85.4014 19.3513 85.9743 19.3513C86.7152 19.3513 87.3682 19.5365 87.9335 19.907C88.4986 20.2774 88.9397 20.8025 89.2568 21.4824C89.5738 22.1622 89.7322 22.9642 89.7322 23.8885C89.7322 24.8203 89.5738 25.628 89.2568 26.3116C88.9397 26.9915 88.5007 27.5185 87.9392 27.8928C87.3778 28.2633 86.7305 28.4485 85.9972 28.4485C85.4319 28.4485 84.9793 28.3549 84.6394 28.1678C84.2996 27.9768 84.0379 27.761 83.8546 27.5205C83.6713 27.276 83.5299 27.0735 83.4306 26.9132H83.2703V28.2651H81.9641ZM83.2932 23.8656C83.2932 24.53 83.3906 25.1164 83.5854 25.6242C83.7802 26.1283 84.0647 26.5237 84.4389 26.8101C84.8133 27.0927 85.2715 27.234 85.8138 27.234C86.3791 27.234 86.8508 27.0851 87.2289 26.7872C87.6107 26.4854 87.8972 26.0806 88.0881 25.5728C88.2829 25.0609 88.3803 24.4919 88.3803 23.8656C88.3803 23.2469 88.2849 22.6893 88.0938 22.1927C87.9068 21.6925 87.6221 21.2971 87.2403 21.0069C86.8622 20.7128 86.3867 20.5657 85.8138 20.5657C85.2638 20.5657 84.8017 20.7052 84.4275 20.984C84.0532 21.2589 83.7706 21.6448 83.5797 22.1411C83.3886 22.6339 83.2932 23.2086 83.2932 23.8656ZM95.3751 28.4485C94.5502 28.4485 93.8397 28.2537 93.244 27.8642C92.6483 27.4747 92.1899 26.9381 91.8691 26.2543C91.5483 25.5707 91.388 24.7898 91.388 23.9113C91.388 23.0177 91.5522 22.229 91.8805 21.5454C92.2129 20.858 92.675 20.3214 93.2669 19.9356C93.8627 19.5461 94.5578 19.3513 95.3521 19.3513C95.9708 19.3513 96.5284 19.4659 97.025 19.6949C97.5215 19.9242 97.9282 20.245 98.2451 20.6575C98.5622 21.0699 98.7588 21.5512 98.8353 22.1012H97.4832C97.3802 21.7 97.151 21.345 96.7958 21.0356C96.4444 20.7224 95.9708 20.5657 95.3751 20.5657C94.848 20.5657 94.3859 20.7032 93.9888 20.9783C93.5954 21.2493 93.2879 21.6332 93.0664 22.1297C92.8488 22.6224 92.7399 23.201 92.7399 23.8656C92.7399 24.5453 92.8468 25.1374 93.0607 25.6415C93.2785 26.1456 93.584 26.537 93.9773 26.8158C94.3744 27.0946 94.8404 27.234 95.3751 27.234C95.7265 27.234 96.0453 27.1729 96.3318 27.0507C96.6183 26.9285 96.8608 26.7528 97.0594 26.5237C97.2579 26.2945 97.3992 26.0196 97.4832 25.6988H98.8353C98.7588 26.2182 98.5698 26.686 98.2682 27.1023C97.9702 27.5147 97.575 27.8432 97.0823 28.0877C96.5934 28.3282 96.0243 28.4485 95.3751 28.4485ZM102.164 22.9718V28.2651H100.812V16.5327H102.164V20.8408H102.278C102.485 20.3863 102.794 20.0253 103.206 19.758C103.623 19.4869 104.176 19.3513 104.868 19.3513C105.467 19.3513 105.992 19.4716 106.443 19.7123C106.894 19.949 107.243 20.3137 107.491 20.8064C107.743 21.2952 107.869 21.9178 107.869 22.674V28.2651H106.518V22.7656C106.518 22.0667 106.336 21.5263 105.973 21.1443C105.614 20.7587 105.116 20.5657 104.478 20.5657C104.035 20.5657 103.638 20.6593 103.286 20.8465C102.939 21.0336 102.664 21.3066 102.461 21.6658C102.263 22.0247 102.164 22.4601 102.164 22.9718ZM112.932 28.4715C112.375 28.4715 111.869 28.3665 111.414 28.1564C110.96 27.9425 110.599 27.635 110.331 27.234C110.064 26.8292 109.93 26.3404 109.93 25.7675C109.93 25.2634 110.03 24.8547 110.228 24.5415C110.427 24.2245 110.692 23.9763 111.025 23.7967C111.357 23.6172 111.724 23.4836 112.124 23.3958C112.529 23.3042 112.936 23.2316 113.345 23.1781C113.879 23.1094 114.313 23.0578 114.645 23.0234C114.981 22.9852 115.226 22.9222 115.378 22.8343C115.535 22.7464 115.613 22.5937 115.613 22.3761V22.3302C115.613 21.7651 115.459 21.3258 115.149 21.0126C114.844 20.6995 114.38 20.5429 113.757 20.5429C113.112 20.5429 112.606 20.6842 112.239 20.9669C111.872 21.2493 111.615 21.5512 111.466 21.8719L110.182 21.4137C110.412 20.879 110.717 20.4627 111.099 20.1648C111.485 19.863 111.905 19.6529 112.359 19.5346C112.818 19.4125 113.268 19.3513 113.711 19.3513C113.994 19.3513 114.319 19.3856 114.685 19.4545C115.056 19.5193 115.413 19.655 115.757 19.8611C116.104 20.0673 116.392 20.3787 116.621 20.795C116.851 21.2112 116.965 21.7688 116.965 22.4677V28.2651H115.613V27.0735H115.544C115.453 27.2646 115.3 27.469 115.086 27.6866C114.872 27.9044 114.588 28.0895 114.233 28.2423C113.877 28.395 113.444 28.4715 112.932 28.4715ZM113.138 27.2569C113.673 27.2569 114.124 27.1519 114.491 26.9418C114.861 26.7317 115.14 26.4607 115.327 26.1283C115.518 25.7961 115.613 25.4467 115.613 25.0801V23.8426C115.556 23.9113 115.43 23.9743 115.235 24.0316C115.044 24.0851 114.823 24.1328 114.571 24.1748C114.322 24.2131 114.08 24.2474 113.843 24.278C113.61 24.3047 113.421 24.3277 113.276 24.3467C112.925 24.3926 112.596 24.467 112.291 24.5702C111.989 24.6695 111.745 24.8203 111.557 25.0228C111.374 25.2214 111.282 25.4924 111.282 25.8362C111.282 26.3059 111.456 26.6612 111.804 26.9018C112.155 27.1386 112.6 27.2569 113.138 27.2569ZM123.26 19.4659V20.6116H118.7V19.4659H123.26ZM120.029 17.3576H121.381V25.7445C121.381 26.1265 121.436 26.413 121.547 26.6039C121.661 26.7911 121.807 26.9171 121.982 26.982C122.162 27.0431 122.351 27.0735 122.549 27.0735C122.698 27.0735 122.821 27.066 122.916 27.0507C123.011 27.0315 123.088 27.0164 123.145 27.0048L123.42 28.2194C123.328 28.2537 123.201 28.2882 123.036 28.3224C122.872 28.3608 122.664 28.3797 122.412 28.3797C122.03 28.3797 121.656 28.2977 121.289 28.1334C120.926 27.9692 120.624 27.719 120.384 27.3829C120.147 27.0468 120.029 26.623 120.029 26.1112V17.3576Z" fill="#969696" fill-opacity="0.2"/>
<defs>
<filter id="filter0_d_114_162" x="4.67686" y="5.6382" width="35.6502" height="35.7334" filterUnits="userSpaceOnUse" color-interpolation-filters="sRGB">
<feFlood flood-opacity="0" result="BackgroundImageFix"/>
<feColorMatrix in="SourceAlpha" type="matrix" values="0 0 0 0 0 0 0 0 0 0 0 0 0 0 0 0 0 0 127 0" result="hardAlpha"/>
<feOffset dy="1.00284"/>
<feGaussianBlur stdDeviation="2.00569"/>
<feComposite in2="hardAlpha" operator="out"/>
<feColorMatrix type="matrix" values="0 0 0 0 0 0 0 0 0 0 0 0 0 0 0 0 0 0 0.2 0"/>
<feBlend mode="normal" in2="BackgroundImageFix" result="effect1_dropShadow_114_162"/>
<feBlend mode="normal" in="SourceGraphic" in2="effect1_dropShadow_114_162" result="shape"/>
</filter>
<linearGradient id="paint0_linear_114_162" x1="41.4411" y1="2.12519" x2="4.06286" y2="43.0663" gradientUnits="userSpaceOnUse">
<stop stop-color="#71A9FF"/>
<stop offset="1" stop-color="#227AFF"/>
</linearGradient>
<linearGradient id="paint1_linear_114_162" x1="123.42" y1="16.5327" x2="57.004" y2="28.4715" gradientUnits="userSpaceOnUse">
<stop stop-color="#71A9FF"/>
<stop offset="1" stop-color="#227AFF"/>
</linearGradient>
</defs>
</svg>
