<svg width="46" height="46" viewBox="0 0 46 46" fill="none" xmlns="http://www.w3.org/2000/svg">
<path d="M32.5029 0.497986H12.5011C5.59694 0.497986 0 6.09493 0 12.9991V33.0009C0 39.9051 5.59694 45.502 12.5011 45.502H32.5029C39.4071 45.502 45.004 39.9051 45.004 33.0009V12.9991C45.004 6.09493 39.4071 0.497986 32.5029 0.497986Z" fill="url(#paint0_linear_225_1190)"/>
<g filter="url(#filter0_d_225_1190)">
<path fill-rule="evenodd" clip-rule="evenodd" d="M23.1018 36.7593C30.4526 36.4452 36.3156 30.3865 36.3156 22.9583C36.3156 15.3293 30.1311 9.14459 22.5019 9.14459C14.8729 9.14459 8.68823 15.3293 8.68823 22.9583C8.68823 25.6447 9.45503 28.1518 10.7817 30.273C10.9148 30.588 11.1276 31.1623 11.4533 32.2049C11.7912 33.2867 11.5769 34.3552 11.3972 35.1884L11.3814 35.2614C11.2988 35.6435 11.2262 35.9791 11.2309 36.2333C11.2335 36.3695 11.2581 36.4908 11.3219 36.5858C11.3873 36.6829 11.4883 36.7446 11.6262 36.7706C11.7568 36.7952 12.0341 36.8129 12.4135 36.8257C12.795 36.8386 13.285 36.8467 13.8443 36.8512C14.9629 36.8599 16.3604 36.8541 17.7264 36.8423C19.0925 36.8306 20.4272 36.8128 21.4206 36.7982C21.9171 36.7908 22.3284 36.7842 22.6155 36.7793C22.7591 36.7769 22.8716 36.7751 22.9482 36.7737L23.0357 36.7722L23.0581 36.7718L23.0637 36.7717H23.0652H23.0656C23.0656 36.7717 23.0656 36.7717 23.0655 36.7608L23.0656 36.7717C23.0792 36.7714 23.0917 36.7668 23.1018 36.7593ZM20.9036 36.6805C16.8403 36.2124 13.3137 33.9811 11.1083 30.7711C11.2292 31.1049 11.3817 31.5566 11.5726 32.1676C11.9215 33.2845 11.6988 34.3832 11.5194 35.2147L11.5056 35.2788C11.4211 35.6698 11.3515 35.992 11.3559 36.231C11.3583 36.3558 11.3809 36.4494 11.4257 36.516C11.4689 36.5803 11.5376 36.6267 11.6494 36.6477C11.7687 36.6702 12.0358 36.6878 12.4178 36.7008C12.7977 36.7137 13.2863 36.7217 13.8453 36.7262C14.9627 36.7349 16.3595 36.7291 17.7252 36.7173C18.867 36.7074 19.9868 36.6936 20.9036 36.6805Z" fill="white"/>
<path d="M12.9243 31.3704C12.9287 31.7372 13.0773 32.0773 13.1056 32.4412C13.1301 32.7564 13.2328 33.0618 13.2654 33.3762C13.2705 33.4263 13.2832 33.4792 13.2963 33.5279C13.3202 33.6177 13.2813 33.3426 13.2674 33.2507C13.2283 32.9919 13.1604 32.7394 13.0787 32.4914C13.0326 32.3511 12.9872 32.22 12.9015 32.0974C12.8948 32.0878 12.8705 32.0229 12.8585 32.0263C12.8344 32.0333 12.8519 32.2889 12.8519 32.3156C12.8519 32.4618 12.8474 32.6065 12.876 32.7507C12.8968 32.8553 12.9243 32.9555 12.9243 33.0628C12.9243 33.0878 12.9252 33.0125 12.923 32.9876C12.9143 32.887 12.8943 32.7842 12.8774 32.6849C12.8441 32.4901 12.8058 32.2934 12.7552 32.1022C12.728 31.999 12.6845 31.8392 12.6102 31.7571C12.553 31.6939 12.5032 31.6263 12.4591 31.5517C12.3541 31.3738 12.2723 31.2091 12.1322 31.0563C12.0914 31.0118 12.0618 30.9585 12.0114 30.9174C11.9613 30.8764 11.9082 30.8296 11.8611 30.7851C11.8298 30.7556 11.8431 30.7791 11.8584 30.8026C11.8824 30.8396 11.8705 30.8875 11.898 30.924C11.928 30.964 11.9599 31.0594 11.9691 31.11C11.9906 31.228 12.0776 31.3424 12.1027 31.4617C12.1176 31.5324 12.1251 31.5978 12.1417 31.6658C12.16 31.7414 12.1709 31.8175 12.1873 31.8914C12.1997 31.9473 12.1957 32.0458 12.2235 32.0928C12.2509 32.1389 12.2598 32.2165 12.2598 32.27C12.2598 32.3431 12.3048 32.4059 12.3081 32.4848C12.3116 32.5681 12.3542 32.6462 12.3565 32.7291C12.359 32.8192 12.4047 32.9018 12.4047 32.995C12.4047 33.072 12.4333 33.1342 12.4504 33.2071C12.479 33.3284 12.4531 33.482 12.4531 33.6058C12.4531 33.6851 12.4977 33.7566 12.5014 33.8354C12.504 33.8907 12.5462 33.9347 12.5498 33.9898C12.5514 34.0153 12.5429 34.0477 12.5558 34.071C12.5766 34.1083 12.5619 34.1884 12.5619 34.2314C12.5619 34.2829 12.5619 34.1285 12.5619 34.077" stroke="white" stroke-width="0.375033" stroke-linecap="round"/>
<path d="M12.5151 33.905C12.5151 33.9331 12.515 33.9589 12.5049 33.9855C12.4965 34.0079 12.4981 34.0317 12.4942 34.055C12.4905 34.0773 12.4817 34.0959 12.4817 34.1184C12.4817 34.1865 12.4817 34.2545 12.4817 34.3225C12.4817 34.3841 12.4714 34.4435 12.4567 34.5024C12.444 34.5531 12.4507 34.6045 12.4376 34.6549C12.4297 34.6854 12.4275 34.7143 12.4275 34.7457C12.4275 34.7722 12.4166 34.7941 12.415 34.8204C12.4135 34.8441 12.4048 34.8743 12.3964 34.896C12.3839 34.9282 12.3962 34.8784 12.3973 34.87C12.3996 34.8518 12.4008 34.8363 12.4056 34.818C12.4097 34.8027 12.4133 34.7551 12.4107 34.7707C12.4047 34.8069 12.4015 34.838 12.3866 34.8724C12.3782 34.8917 12.3689 34.9085 12.3629 34.9284C12.357 34.9482 12.35 34.9714 12.3407 34.9897C12.3325 35.0058 12.3277 35.0268 12.3272 35.045C12.327 35.0526 12.3272 35.0501 12.3282 35.0426C12.3309 35.0213 12.3354 35.0005 12.3398 34.9796C12.3575 34.8942 12.3756 34.8092 12.3899 34.7235" stroke="white" stroke-width="0.375033" stroke-linecap="round"/>
<path d="M12.39 35.0319C12.3746 35.0951 12.3647 35.165 12.3367 35.2245C12.3314 35.2357 12.3285 35.2431 12.32 35.2524C12.3073 35.266 12.294 35.3118 12.294 35.2658C12.294 35.2491 12.294 35.2324 12.294 35.2157C12.294 35.1862 12.2726 35.2387 12.2699 35.2459C12.2431 35.3139 12.2209 35.3855 12.1875 35.4507C12.1695 35.4857 12.1547 35.5207 12.1476 35.5599C12.1405 35.5989 12.1228 35.6349 12.1228 35.6759C12.1228 35.7169 12.1051 35.7527 12.0987 35.7923C12.0935 35.8248 12.0872 35.8578 12.079 35.89C12.0503 36.0015 12.0429 36.1233 12.0604 36.237C12.0661 36.274 12.0729 36.3149 12.0843 36.3504C12.0877 36.3609 12.0934 36.3714 12.0996 36.3805C12.1065 36.3906 12.1114 36.4053 12.1186 36.4139C12.15 36.4519 12.1889 36.4522 12.2272 36.4765C12.2607 36.4979 12.3154 36.4994 12.3545 36.5079C12.3689 36.5111 12.3839 36.5183 12.3986 36.5183C12.4097 36.5183 12.4204 36.5177 12.4311 36.5211C12.4685 36.5328 12.5049 36.5381 12.5433 36.5454C12.5752 36.5516 12.6023 36.5601 12.6349 36.5601C12.6968 36.5601 12.763 36.5539 12.8242 36.5642C12.8621 36.5706 12.8954 36.5768 12.9342 36.5768C12.9782 36.5768 13.0227 36.5747 13.0663 36.581C13.0941 36.585 13.1227 36.589 13.1509 36.5893C13.1826 36.5896 13.2066 36.5937 13.2369 36.5992C13.2575 36.6031 13.2789 36.6015 13.2997 36.6046C13.3175 36.6073 13.3338 36.6148 13.3514 36.6178C13.3723 36.6213 13.3958 36.6185 13.4168 36.6185C13.4706 36.6185 13.5244 36.6185 13.578 36.6185C13.7063 36.6185 13.8346 36.6185 13.9629 36.6185C13.9813 36.6185 13.9952 36.6253 14.0125 36.6266C14.0354 36.6283 14.0591 36.6268 14.0821 36.6268C14.1545 36.6268 14.2256 36.6352 14.298 36.6352C14.4288 36.6352 14.5592 36.6393 14.69 36.6393C14.743 36.6393 14.7956 36.6436 14.8487 36.6436C14.9002 36.6436 14.9526 36.6405 15.0036 36.6477" stroke="white" stroke-width="0.375033" stroke-linecap="round"/>
<path d="M15.0447 36.6181H21.6898" stroke="white" stroke-width="0.375033" stroke-linecap="round"/>
<path d="M12.3248 31.5831C12.3414 31.8647 12.4468 32.1309 12.4755 32.4088C12.4908 32.5577 12.5517 32.7205 12.6158 32.8546C12.7612 33.1578 12.8178 33.4955 12.8178 33.8295C12.8178 34.1639 12.8178 34.4983 12.8178 34.8326C12.8178 34.9572 12.7708 35.0469 12.7439 35.1648C12.7109 35.309 12.6464 35.4377 12.6014 35.5776C12.5898 35.6141 12.5965 35.6564 12.596 35.6939C12.5954 35.7356 12.5809 35.7702 12.574 35.8103C12.5677 35.8477 12.5715 35.8825 12.5563 35.9186C12.5489 35.9361 12.5162 36.0183 12.524 35.9562C12.5407 35.8261 12.5774 35.6953 12.6035 35.5667C12.6499 35.3382 12.6839 35.1068 12.7343 34.8792C12.7599 34.7634 12.7786 34.6515 12.7808 34.5327C12.7831 34.4169 12.7676 34.5292 12.7473 34.5855C12.6904 34.7434 12.6267 34.899 12.5727 35.0579C12.5262 35.1949 12.4964 35.3369 12.4488 35.4735C12.4062 35.5956 12.3945 35.7204 12.3426 35.8378C12.3068 35.9191 12.1539 36.1206 12.266 36.1897C12.4908 36.3284 12.7067 36.3526 12.963 36.3526C13.1877 36.3526 13.4309 36.3274 13.6531 36.3602C13.755 36.3752 13.8588 36.3896 13.9599 36.4087C14.0272 36.4215 14.0846 36.4485 14.1543 36.4506C14.4205 36.4586 14.6879 36.4513 14.9541 36.4513C15.0841 36.4513 15.2272 36.4683 15.356 36.4499C15.4425 36.4375 15.5308 36.4056 15.6176 36.3896C15.7292 36.369 15.8448 36.3601 15.9537 36.328C16.3226 36.2191 16.7318 36.2541 17.1116 36.2541C17.691 36.2541 18.2705 36.2541 18.85 36.2541C19.1955 36.2541 19.541 36.2541 19.8866 36.2541C19.9439 36.2541 20.0012 36.2541 20.0585 36.2541C20.1162 36.2541 20.0933 36.2869 20.1262 36.3034" stroke="white" stroke-width="0.375033" stroke-linecap="round"/>
<path d="M19.3744 36.1554C19.094 36.1416 18.8135 36.1052 18.5328 36.0869C18.2709 36.0701 18.017 36.0104 17.7612 35.9556C17.481 35.8954 17.2012 35.8378 16.9218 35.774C16.6493 35.7119 16.3704 35.6842 16.0973 35.6241C15.5662 35.5074 15.0461 35.2364 14.6116 34.9121C14.4752 34.8102 14.3922 34.6902 14.2912 34.5567C14.2205 34.4634 14.1307 34.4005 14.0378 34.3314C13.9503 34.2663 13.8899 34.1809 13.8221 34.0965C13.7491 34.0058 13.6727 33.9142 13.6092 33.8165C13.5052 33.6565 13.4025 33.4958 13.2983 33.3358C13.2342 33.2373 13.2065 33.1236 13.1573 33.0195C13.1341 32.9704 13.0662 32.8418 13.0642 32.9743C13.0597 33.2686 13.0642 33.5633 13.0642 33.8576C13.0642 33.9739 13.0854 34.1125 13.0587 34.226C13.0316 34.341 12.9858 34.4588 12.9683 34.5752C12.9533 34.6753 12.9176 34.7768 12.9163 34.8765C12.9151 34.9783 12.9039 35.0793 12.9039 35.1819C12.9039 35.2785 12.9058 35.3754 12.9039 35.4721C12.9024 35.554 12.8646 35.6256 12.845 35.7035C12.8267 35.7772 12.7965 35.8562 12.7712 35.9282C12.7505 35.9866 12.7505 36.0497 12.7342 36.1089C12.7168 36.1717 12.7748 36.1154 12.7937 36.0993C12.844 36.0563 12.9099 36.0076 12.9478 35.9528C12.9764 35.9113 12.9967 35.8573 13.0094 35.809C13.0256 35.7473 13.0607 35.6938 13.0764 35.6323C13.1271 35.4355 13.1322 35.2297 13.1628 35.0298C13.177 34.9375 13.2053 34.848 13.2176 34.7552C13.2276 34.6789 13.2195 34.6022 13.2271 34.5259C13.2347 34.4507 13.2552 34.3814 13.2723 34.3082C13.2901 34.232 13.2913 34.1534 13.3133 34.0781C13.3338 34.0083 13.3511 33.9454 13.36 33.8726C13.3636 33.8425 13.3838 33.7706 13.3846 33.8466C13.3876 34.156 13.3846 34.4657 13.3846 34.7751C13.3846 35.0381 13.4076 35.3127 13.3723 35.5734C13.3571 35.6855 13.3138 35.7898 13.3107 35.9034C13.3097 35.9392 13.2558 36.0137 13.2243 36.0294C13.1811 36.0511 13.1012 36.1159 13.1012 36.0377C13.1012 35.6183 13.1842 35.186 13.2641 34.7751C13.3216 34.4795 13.2983 34.1728 13.2983 33.8726C13.2983 33.7299 13.2983 33.587 13.2983 33.4441" stroke="white" stroke-width="0.375033" stroke-linecap="round"/>
<path d="M13.0888 32.5566C13.4394 32.7915 13.7502 33.0794 14.0994 33.3167C14.2891 33.4455 14.4831 33.5815 14.6897 33.6824C14.7189 33.6966 14.8508 33.7604 14.7499 33.696C14.2116 33.3525 13.6385 33.0771 13.0847 32.7622C12.995 32.711 13.2097 32.9281 13.286 32.9977C13.552 33.24 13.8954 33.4041 14.2118 33.5687C14.3123 33.621 14.4178 33.681 14.5281 33.7125C14.5637 33.7226 14.4583 33.6871 14.4226 33.6769C14.1901 33.61 13.9583 33.5562 13.7188 33.5194C13.6902 33.515 13.6049 33.5046 13.6318 33.5152C13.7054 33.5444 13.786 33.5644 13.8625 33.5824C14.357 33.699 14.863 33.7741 15.3607 33.8768C15.5721 33.9204 15.7837 33.9631 15.9954 34.0055C16.0454 34.0155 16.1964 34.0356 16.1454 34.0356C16.065 34.0356 15.9686 34.0136 15.8933 34.0008C15.5341 33.939 15.1768 33.8735 14.8143 33.8316C14.4647 33.7913 14.1119 33.7633 13.7599 33.7618C13.6962 33.7615 13.6283 33.7616 13.5654 33.7769C13.4579 33.8028 13.645 33.8703 13.664 33.8754C13.9555 33.9544 14.2731 33.9364 14.5719 33.937C14.673 33.9373 14.7825 33.9273 14.8835 33.9391C14.9245 33.9439 14.8035 33.9626 14.7622 33.9658C14.4496 33.9899 14.1334 33.9698 13.8202 33.9768C13.7609 33.978 13.6843 33.9736 13.6243 33.9856C13.562 33.9981 13.7512 33.9864 13.8147 33.9864C14.2782 33.9864 14.743 33.9813 15.2059 34.011C15.2599 34.0144 15.4189 34.0325 15.3654 34.0404C15.2549 34.0568 15.1345 34.0478 15.0238 34.048C14.6111 34.0488 14.1968 34.0368 13.7845 34.0561C13.6736 34.0614 13.343 34.0739 13.4531 34.0877C13.8437 34.1365 14.2466 34.1189 14.639 34.1219C15.0553 34.125 15.4787 34.1272 15.8906 34.1959C15.8973 34.197 15.9048 34.1974 15.9105 34.2013C15.9233 34.2103 15.8796 34.2072 15.864 34.2075C15.7475 34.2103 15.6306 34.2082 15.5141 34.2082C15.0774 34.2082 14.6366 34.1907 14.2008 34.2219C14.0718 34.2312 13.9383 34.2447 13.8119 34.2739C13.7595 34.286 13.7733 34.2967 13.8174 34.3068C14.1184 34.3757 14.4355 34.3961 14.7431 34.4027C14.926 34.4066 15.1093 34.4054 15.2922 34.4054C15.3417 34.4054 15.4342 34.3942 15.4881 34.4081C15.5118 34.4143 15.4393 34.4164 15.4148 34.4171C15.2745 34.4201 15.1339 34.4174 14.9936 34.4177C14.6187 34.4183 14.2091 34.3811 13.8393 34.4616C13.7529 34.4803 13.8677 34.5016 13.8832 34.5047C14.0529 34.5378 14.2284 34.5431 14.4007 34.5478C14.8538 34.5602 15.3074 34.5533 15.7606 34.5533C16.5749 34.5533 14.1318 34.5458 13.3175 34.5561C13.177 34.5578 13.0326 34.5562 12.8923 34.5717C12.8443 34.5771 12.8456 34.5859 12.8917 34.5984C13.3592 34.7253 13.8585 34.7726 14.3377 34.8285C14.931 34.8979 15.5311 34.9445 16.1139 35.0819C16.1457 35.0894 16.2358 35.1072 16.1405 35.1134C15.9749 35.1241 15.8072 35.12 15.6414 35.1202C15.1223 35.121 14.5939 35.0922 14.0762 35.138C14.0293 35.1421 13.9007 35.1422 13.9385 35.1701C13.9858 35.205 14.1518 35.2093 14.1953 35.2134C14.8204 35.271 15.4554 35.2423 16.0824 35.2434C16.1221 35.2435 16.1617 35.2434 16.2015 35.2441C16.2888 35.2456 16.1874 35.249 16.17 35.2496C15.911 35.2578 15.6513 35.2555 15.3922 35.2558C14.7905 35.2563 14.1888 35.2524 13.5873 35.2654C13.513 35.267 13.5984 35.2441 13.6188 35.238C13.7487 35.199 13.8807 35.168 14.0118 35.1339C14.0309 35.129 14.1746 35.1064 14.1973 35.0777C14.2232 35.0455 14.1174 35.0542 14.0762 35.0517C13.798 35.0345 13.5138 35.0409 13.2354 35.049C13.1906 35.0504 13.0575 35.0582 13.1018 35.0641C13.2325 35.0814 13.3744 35.0706 13.5051 35.0709C13.8402 35.0715 14.1752 35.0709 14.5103 35.0709C14.9414 35.0709 13.6284 35.0224 13.2204 35.1613C13.0603 35.2158 13.2939 35.3266 13.3462 35.3503C13.67 35.4955 14.0248 35.5564 14.3733 35.6077C14.4433 35.618 14.5138 35.629 14.5842 35.6364C14.5987 35.638 14.6162 35.6378 14.587 35.6378C14.3118 35.6378 14.0362 35.6329 13.7613 35.6433C13.6454 35.6477 13.5155 35.6482 13.4039 35.6864C13.3175 35.7159 13.4345 35.7207 13.449 35.7214C13.9937 35.7456 14.5431 35.7229 15.0882 35.724C15.2462 35.7244 15.4136 35.7162 15.5716 35.7364C15.5831 35.7379 15.5953 35.7383 15.6058 35.7433C15.6248 35.7523 15.5639 35.7486 15.5428 35.7488C15.0573 35.7524 14.5712 35.7404 14.0858 35.7542C13.9389 35.7584 13.7717 35.7541 13.6278 35.7933C13.5164 35.8237 13.6829 35.8548 13.6955 35.8569C13.9349 35.8967 14.1861 35.8916 14.4275 35.8946C14.7116 35.8981 14.9958 35.8967 15.2799 35.8967C15.3727 35.8967 15.4742 35.8888 15.5674 35.8973C15.6293 35.9029 15.4433 35.9051 15.3812 35.9062C14.9974 35.9138 14.6134 35.9027 14.2296 35.9144C14.0516 35.9199 13.8719 35.9252 13.6948 35.9453C13.6718 35.9478 13.6128 35.9692 13.6339 35.9788C13.7373 36.0261 13.8732 36.0418 13.9817 36.0548C14.3023 36.0932 14.6261 36.0987 14.9485 36.1035C15.1819 36.1068 15.4156 36.1031 15.649 36.1076C15.677 36.1081 15.8386 36.0972 15.8756 36.1253C15.8806 36.1292 15.8633 36.1291 15.8571 36.1295C15.8225 36.1317 15.6698 36.1308 15.664 36.1308C15.4456 36.1308 15.2272 36.1308 15.0088 36.1308C14.5787 36.1308 14.1422 36.1107 13.7133 36.15C13.7003 36.1512 13.6265 36.1555 13.7072 36.1555C13.8703 36.1555 14.0336 36.1555 14.1967 36.1555C14.8599 36.1555 15.5232 36.1555 16.1864 36.1555C16.3111 36.1555 16.4388 36.1502 16.5637 36.1561C16.6342 36.1595 16.4226 36.1641 16.3521 36.1651C15.0238 36.1833 13.6943 36.1678 12.3658 36.1678C11.3488 36.1678 14.3998 36.1643 15.4168 36.1678C15.7083 36.1687 16.5818 36.193 16.2905 36.2047C16.0567 36.2142 15.8206 36.2047 15.5866 36.2047C15.4552 36.2047 15.0611 36.1975 15.1923 36.2075C15.6632 36.2437 16.1507 36.1743 16.6164 36.1157C16.8713 36.0837 17.1256 36.0437 17.3785 35.9987C17.4619 35.9838 17.548 35.9702 17.6284 35.9418C17.6739 35.9258 17.6548 35.9189 17.6168 35.9158C17.4842 35.9048 17.349 35.9092 17.2162 35.9089C16.6204 35.9081 14.8341 35.9098 15.4292 35.9404C16.1151 35.9758 16.8091 35.9459 17.4956 35.9459C17.7646 35.9459 18.0338 35.9459 18.3028 35.9459C18.3519 35.9459 18.4987 35.9421 18.4501 35.9487C18.3328 35.9646 18.1983 35.9571 18.0837 35.9576C17.5937 35.9599 17.1037 35.9583 16.6137 35.9583C15.7573 35.9583 14.901 35.9583 14.0447 35.9583C14.0007 35.9583 13.9565 35.9583 13.9125 35.9583C13.8918 35.9583 13.871 35.9583 13.8503 35.9583C13.8393 35.9583 13.8722 35.9583 13.8832 35.9583C14.1397 35.9583 14.3962 35.9587 14.6527 35.9583C15.1707 35.9574 15.6885 35.9538 16.2062 35.9453C16.5033 35.9404 16.8058 35.9431 17.1026 35.9186C17.1402 35.9154 17.2485 35.9042 17.2128 35.8918C17.1285 35.8627 16.9148 35.8848 16.8492 35.8843C15.9944 35.8783 15.1425 35.8248 14.2885 35.7939C14.1684 35.7896 13.8082 35.7857 13.9283 35.7857C14.0867 35.7857 14.2451 35.7866 14.4035 35.7857C15.5357 35.7799 16.677 35.7599 17.8009 35.6118C17.9532 35.5918 18.1636 35.5777 18.3138 35.5228C18.3756 35.5003 18.1857 35.4889 18.12 35.4858C17.317 35.4478 16.5067 35.4777 15.7031 35.4777C15.195 35.4777 13.6709 35.4777 14.1789 35.4777C14.6929 35.4777 15.2069 35.4777 15.7208 35.4777C16.4074 35.4777 17.0938 35.4777 17.7804 35.4777C18.3062 35.4777 16.7287 35.4777 16.2029 35.4777C15.5876 35.4777 13.7417 35.4807 14.357 35.4777C15.1242 35.4739 15.8793 35.3941 16.6369 35.2723C16.7397 35.2556 16.8422 35.2373 16.9444 35.2174C16.9988 35.2069 17.1423 35.2019 17.1018 35.164C17.0358 35.1022 16.7468 35.1185 16.6822 35.1161C16.058 35.0929 15.4331 35.1147 14.8089 35.0887C14.785 35.0877 14.7612 35.0872 14.7376 35.0846C14.6864 35.0789 14.8408 35.0832 14.8924 35.0832C15.194 35.0832 15.4958 35.0845 15.7975 35.0832C16.1532 35.0817 16.511 35.0837 16.8657 35.051C16.9301 35.0451 17.1153 35.0095 17.0518 34.997C16.8691 34.9607 16.656 34.9752 16.4733 34.9737C16.1061 34.9705 15.7388 34.9731 15.3717 34.9724C15.2348 34.972 14.8311 34.9969 14.9615 34.9552C15.125 34.9029 15.3144 34.8944 15.4826 34.8641C15.6009 34.8428 15.7693 34.8318 15.8811 34.7751C15.9451 34.7426 15.836 34.7008 15.8195 34.6943C15.657 34.6308 15.4691 34.6198 15.2963 34.6149C15.2902 34.6147 15.2279 34.6154 15.2847 34.6073C15.3917 34.5921 15.4999 34.5854 15.6072 34.5724C15.7557 34.5544 15.9033 34.5307 16.0509 34.5061C16.0862 34.5001 16.2062 34.4939 16.2453 34.4669C16.269 34.4507 16.1885 34.4561 16.1597 34.4567C16.0864 34.4583 16.0127 34.4651 15.94 34.4738C15.8271 34.4874 15.9385 34.5199 15.9865 34.5341C16.0106 34.5412 16.1574 34.5601 16.1672 34.5888C16.1826 34.634 16.2011 34.6782 16.2165 34.7231C16.2476 34.8136 16.1431 34.9346 16.0741 34.9764C15.9835 35.0314 15.8521 35.0137 15.751 35.0312C15.6636 35.0462 15.5731 35.0926 15.5223 35.1681C15.4641 35.2546 15.4384 35.374 15.4333 35.4763C15.4267 35.6055 15.4181 35.7472 15.4361 35.8761C15.4523 35.9933 15.5833 36.0547 15.6935 36.0568C15.9671 36.0623 16.2414 36.0568 16.515 36.0568" stroke="white" stroke-width="0.375033" stroke-linecap="round"/>
<path d="M14.0996 34.726C13.9305 34.5907 13.7684 34.4554 13.6367 34.2822C13.6091 34.246 13.5958 34.2063 13.5696 34.1712" stroke="white" stroke-width="0.375033" stroke-linecap="round"/>
<path d="M13.5817 34.6021C13.5536 34.5291 13.4956 34.437 13.4956 34.356" stroke="white" stroke-width="0.375033" stroke-linecap="round"/>
<path d="M11.2012 30.7347C11.2692 30.8292 11.3338 30.9353 11.3604 31.0486C11.3771 31.1193 11.4065 31.1874 11.4246 31.258C11.4347 31.2978 11.4586 31.3243 11.4618 31.3655C11.4631 31.3824 11.4858 31.4028 11.4918 31.4214C11.4986 31.4427 11.4984 31.4657 11.513 31.4836C11.5542 31.5338 11.6077 31.6364 11.6107 31.7048C11.6161 31.825 11.6792 31.9373 11.6852 32.0565C11.6868 32.0892 11.6956 32.1406 11.7131 32.1681C11.7408 32.2116 11.7466 32.2761 11.7829 32.3125C11.8172 32.3468 11.827 32.4291 11.8434 32.4733C11.8707 32.5465 11.8921 32.6405 11.8998 32.7179C11.9058 32.7775 11.9321 32.8372 11.9365 32.8963C11.9389 32.9278 11.9521 32.9578 11.9624 32.9873C11.9821 33.0441 11.9738 33.106 11.9882 33.1636C12.0095 33.2487 12.0186 33.3235 12.0203 33.4104C12.0212 33.4552 12.0443 33.4951 12.0534 33.5385C12.0668 33.6025 12.0575 33.6756 12.0575 33.7408C12.0575 33.8123 12.0575 33.8838 12.0575 33.9553C12.0575 33.9694 12.0575 34.0498 12.0575 34.0003C12.0575 33.9619 12.0575 33.9234 12.0575 33.885C12.0575 33.8285 12.0536 33.7748 12.0487 33.719C12.046 33.6871 12.0288 33.6659 12.0208 33.6353C12.0167 33.6194 12.0017 33.5667 12.0017 33.611C12.0017 33.7591 12.0086 33.901 11.9758 34.0443C11.9635 34.0983 11.9738 34.167 11.9738 34.2222C11.9738 34.2951 11.977 34.3687 11.9738 34.4414C11.971 34.5027 11.9338 34.564 11.9277 34.625C11.9219 34.6828 11.8963 34.7327 11.8853 34.7879C11.8686 34.8717 11.8554 34.9552 11.8414 35.0392C11.8333 35.0876 11.8066 35.1298 11.799 35.1778C11.7914 35.2255 11.7919 35.2614 11.7741 35.3081C11.7465 35.3809 11.7252 35.4738 11.7224 35.5522C11.7209 35.5955 11.6941 35.6249 11.6873 35.6659C11.6818 35.6991 11.6851 35.7344 11.6702 35.7658C11.6504 35.8076 11.6141 35.8598 11.6107 35.908C11.6095 35.9253 11.5881 35.9652 11.6014 35.9235C11.6113 35.8927 11.6105 35.8618 11.6206 35.8309C11.6433 35.7608 11.6335 35.6914 11.6614 35.6225C11.6787 35.5798 11.6972 35.5334 11.7178 35.4922C11.7238 35.4802 11.7416 35.4262 11.741 35.4508C11.7397 35.5085 11.725 35.5709 11.7111 35.6267C11.6989 35.6754 11.691 35.7299 11.6749 35.7772C11.6456 35.8628 11.6364 35.9531 11.6128 36.0403C11.6037 36.074 11.5735 36.1859 11.5735 36.0916C11.5735 36.0523 11.5737 36.0212 11.5875 35.9845C11.5937 35.968 11.612 35.8921 11.6107 35.939C11.6094 35.9856 11.5928 36.028 11.5776 36.0713C11.5672 36.1015 11.577 36.135 11.5689 36.166C11.5681 36.169 11.5442 36.2769 11.5363 36.269C11.5141 36.2467 11.5378 36.0562 11.5549 36.0357C11.5945 35.9882 11.5435 36.1596 11.527 36.2192C11.5186 36.2496 11.5151 36.2807 11.5083 36.3114C11.4993 36.352 11.499 36.3899 11.499 36.4313C11.499 36.4959 11.5676 36.4898 11.6118 36.5063C11.7155 36.5451 11.8324 36.5111 11.936 36.5565C11.9688 36.5708 12.0331 36.5778 12.0689 36.5803C12.0901 36.5816 12.105 36.5981 12.1248 36.5989C12.1474 36.5996 12.1703 36.5989 12.193 36.5989C12.2165 36.5989 12.262 36.6044 12.223 36.575C12.1564 36.5251 12.0724 36.4956 12.0296 36.4179C11.976 36.3204 11.9272 36.2064 11.9272 36.0941C11.9272 36.0698 11.9387 35.9067 11.9122 35.9965C11.8909 36.0685 11.8635 36.1373 11.8357 36.2069C11.8213 36.243 11.8237 36.2846 11.8062 36.3196C11.7683 36.3954 11.8481 36.155 11.8776 36.0755C11.9206 35.9596 11.9728 35.8472 12.01 35.7291C12.0452 35.6168 12.0636 35.4997 12.0844 35.3842C12.1136 35.2218 12.1446 35.0574 12.1858 34.8975C12.2015 34.8365 12.2058 34.7741 12.223 34.7135C12.2396 34.6551 12.2322 34.592 12.2499 34.5356C12.2811 34.4363 12.3165 34.3157 12.3182 34.2098C12.3197 34.1093 12.3182 34.0088 12.3182 33.9083C12.3182 33.8286 12.3282 33.7416 12.3176 33.6626C12.3081 33.5909 12.3108 33.5182 12.2902 33.4475C12.2755 33.3969 12.2746 33.3413 12.2644 33.2893C12.2565 33.2492 12.237 33.2145 12.2297 33.1735C12.2162 33.0975 12.1982 33.0187 12.1785 32.9438C12.1513 32.8398 12.1377 32.7309 12.1046 32.6289C12.0748 32.5373 12.0682 32.4344 12.0317 32.346C12.0016 32.2734 12.0002 32.1875 11.9738 32.1134C11.9447 32.0321 11.9584 31.9337 11.9231 31.8568C11.8983 31.803 11.8976 31.7293 11.8341 31.7213" stroke="white" stroke-width="0.375033" stroke-linecap="round"/>
<path d="M11.4873 31.5022C11.4901 31.6001 11.5088 31.6986 11.5197 31.7958C11.5284 31.8735 11.5255 31.7458 11.5234 31.7291C11.5195 31.6972 11.5054 31.6683 11.5019 31.6366C11.4966 31.5894 11.5097 31.6757 11.5131 31.6863C11.5564 31.824 11.6197 31.9488 11.6516 32.0906C11.6664 32.1568 11.6837 32.222 11.7005 32.2876C11.7121 32.3328 11.7149 32.3734 11.7374 32.4154C11.7761 32.4877 11.8121 32.5761 11.8224 32.6583C11.8295 32.715 11.8483 32.7687 11.8606 32.8251C11.8737 32.8853 11.8755 32.9486 11.8755 33.0099C11.8755 33.1926 11.8755 33.3752 11.8755 33.5578C11.8755 33.6365 11.8755 33.7151 11.8755 33.7938C11.8755 33.865 11.8974 33.9329 11.8888 34.007C11.8844 34.0445 11.8874 34.0871 11.8722 34.1219C11.8606 34.1483 11.8531 34.183 11.8531 34.2118C11.8531 34.2555 11.843 34.3066 11.8344 34.3495C11.8254 34.395 11.8301 34.4398 11.8195 34.4854C11.7977 34.5802 11.7678 34.6751 11.7557 34.772C11.7431 34.8724 11.7018 34.9709 11.6964 35.0735C11.6936 35.1255 11.6734 35.1764 11.6623 35.227C11.6531 35.2694 11.643 35.3113 11.635 35.3539C11.6177 35.4455 11.5876 35.5391 11.5583 35.6271C11.5303 35.7108 11.5152 35.7996 11.5023 35.8867C11.4925 35.9526 11.4724 36.0109 11.4724 36.0779" stroke="white" stroke-width="0.375033" stroke-linecap="round"/>
<path d="M10.5386 29.7281C10.857 30.3323 11.0096 30.6999 11.2428 31.3141" stroke="white" stroke-width="0.125011" stroke-linecap="round"/>
</g>
<defs>
<filter id="filter0_d_225_1190" x="4.67686" y="6.13606" width="35.6502" height="35.7336" filterUnits="userSpaceOnUse" color-interpolation-filters="sRGB">
<feFlood flood-opacity="0" result="BackgroundImageFix"/>
<feColorMatrix in="SourceAlpha" type="matrix" values="0 0 0 0 0 0 0 0 0 0 0 0 0 0 0 0 0 0 127 0" result="hardAlpha"/>
<feOffset dy="1.00284"/>
<feGaussianBlur stdDeviation="2.00569"/>
<feComposite in2="hardAlpha" operator="out"/>
<feColorMatrix type="matrix" values="0 0 0 0 0 0 0 0 0 0 0 0 0 0 0 0 0 0 0.2 0"/>
<feBlend mode="normal" in2="BackgroundImageFix" result="effect1_dropShadow_225_1190"/>
<feBlend mode="normal" in="SourceGraphic" in2="effect1_dropShadow_225_1190" result="shape"/>
</filter>
<linearGradient id="paint0_linear_225_1190" x1="41.4411" y1="2.62317" x2="4.06286" y2="43.5643" gradientUnits="userSpaceOnUse">
<stop stop-color="#71A9FF"/>
<stop offset="1" stop-color="#227AFF"/>
</linearGradient>
</defs>
</svg>
